<svg xmlns="http://www.w3.org/2000/svg" width="264" height="320" viewBox="0 0 132 160"><defs><clipPath id="yvxta"><path d="M0 159.787h131.597V0H0z"/></clipPath></defs><g><g><g><path fill="#fcb813" d="M28.236 24.36c-2.07-1.258-4.8-2.868-6.13-3.323-1.543-.53-2.223-.598-2.805-.26-.97.562-1.397 2.091-.933 3.065.338.708 1.085.997 1.355 1.104 3.051 1.21 8.9 5.644 10.632 7.242 1.733 1.598 4.45 2.822 5.688.436 1.238-2.384-4.036-5.749-7.807-8.264"/></g><g><path fill="#fcb813" d="M55.3 4.932c.391 2.094.675 3.978.992 5.31.318 1.332.601 3.699 1.08 5.87.39 1.773.629 4.451 2.442 4.551.45.025.927-.098 1.412-.4 2.278-1.426.249-10.35-1.285-15.291-1.535-4.942-6.152-8.111-4.642-.04"/></g><g><path fill="#fcb813" d="M90.127 14.296c-2.462 4.117-5.026 8.474-1.74 8.34 4.106-.17 10.308-12.692 5.42-13.729-1.702-.361-2.222 2.952-3.68 5.39"/></g><g><path fill="#fcb813" d="M9.934 65.355c-2.37.477-2.59 4.42.727 4.103 3.317-.317 12.384-3.53 15.173-5.882 2.788-2.353.6-4.231-1.698-3.75-1.219.255-3.833 1.816-6.682 3.093-2.52 1.13-5.208 1.97-7.52 2.436"/></g><g><path fill="#fcb813" d="M113.996 77.798c-1.375-1.247-4.033 1.04-2.647 2.612 1.385 1.573 6.832 4.595 9.472 4.783 2.64.187 3.202-1.984 2.058-2.93-1.145-.947-6.023-1.872-8.883-4.465"/></g><g><path fill="#fcb813" d="M36.673 96.269c-2.615 2.956-4.4 4.216-4.209 5.438.192 1.222.88 3.516 5.137-.604 4.258-4.121 6.842-8.201 6.382-10.153-.32-1.36-2.355-1.971-3.676.19-1.433 2.345-3.634 5.129-3.634 5.129"/></g><g><path fill="#fcb813" d="M77.359 102.23c.275 2.24.904 5.02 1.205 6.604.265 1.39 2.58 2.654 2.675 1.2.094-1.453-.07-6.885-.844-9.772-.773-2.889-2.002-4.463-2.997-3.959-.994.505-.298 3.821-.04 5.928"/></g><g><path fill="#fcb813" d="M111.686 38.425c-3.3 1.783-6.65 4.127-7.265 4.95-.34.454-.446 1.138-.088 1.579.472.58 1.384.43 2.097.205 1.54-.485 14.922-5.745 12.024-8.655-.845-.844-3.786.31-6.768 1.921"/></g><g><path fill="#fcb813" d="M38.228 51.88c-1.01 3.825-2.532 26.047 15.002 32.378 9.885 3.567 18.66 5.11 26.826 4.729 7.126-.338 14.867-1.387 18.246-6.615 1.975-3.054 2.925-7.421 3.843-11.645.394-1.813.766-3.524 1.213-5.1.184-.65.373-1.323.336-1.918-.043-.661-.32-1.136-1.57-1.46l-3.44-.896c-.38-.097-.9-.235-1.18-.129-.291.108-.563.59-.726 1.289-.325 1.39-.316 2.846-.306 4.388.008 1.336.017 2.717-.203 4.099-1.08 6.77-7.926 11.725-13.92 12.602-8.843 1.299-18.058-.65-25.278-5.338-4.04-2.623-6.886-5.686-8.457-9.104C46.52 64.602 46.67 59.479 47 54.622c.446-6.554 1.63-13.781 7.017-17.693 5.025-3.651 12.699-3.288 20.527.969 5.057 2.75 8.282 5.875 9.86 9.555 1.995 4.657 1.124 10.372-2.168 14.223-3.997 4.673-12.845 5.002-17.016 1.984-1.407-1.018-4.329-3.961-1.088-9.302.62-1.022 1.433-1.718 2.35-2.014 1.603-.513 3.501.236 4.616 1.83.25.358.464.794.659 1.333.208.577.372 1.215.53 1.831.55 2.15.977 3.466 2.258 3.59 1.174.112 2.186-1.59 2.564-2.327 1.096-2.134 2.67-6.188.898-9.363-.781-1.399-2.142-2.46-3.37-3.313a35.385 35.385 0 0 0-8.007-4.155c-2.86-1.049-4.96-1.21-6.603-.513-2.392 1.016-3.667 3.869-4.416 5.927-3.234 8.865-2.584 17.503 1.738 23.104 3.352 4.344 9.172 7.009 15.17 6.94 10.111-.109 17.646-5.735 19.195-14.332.796-4.42.056-8.568-.727-12.96-.333-1.863-.676-3.788-.896-5.741-.494-4.41-6.64-17.095-27.673-17.519a30.528 30.528 0 0 0-.613-.006c-18.401 0-21.864 16.957-23.177 23.385-.156.762-.279 1.364-.4 1.825"/></g><g><path fill="#373837" d="M5.659 140.177H0V122.59h4.974c4.72 0 7.613 1.192 7.613 4.491 0 2.234-1.599 3.401-3.222 3.782 1.954.38 3.958 1.345 3.958 4.187 0 4.01-3.249 5.127-7.664 5.127zm-1.497-10.551H5.71c1.726 0 2.639-.662 2.639-2.137s-.964-1.958-2.969-1.958H4.162zm1.827 2.754H4.162v4.779h1.523c1.954 0 3.35-.407 3.35-2.34 0-1.778-1.244-2.44-3.046-2.44z"/></g><g><path fill="#373837" d="M18.906 134.62c.279 2.41 1.42 3.07 3.07 3.07 1.092 0 2.056-.38 3.224-1.192l1.649 2.233c-1.345 1.067-3.07 1.878-5.253 1.878-4.492 0-6.776-2.893-6.776-7.106 0-4.035 2.208-7.233 6.294-7.233 3.857 0 6.218 2.538 6.218 6.903 0 .432-.026 1.041-.077 1.447zm4.492-2.589c-.026-1.827-.584-3.095-2.183-3.095-1.345 0-2.132.862-2.309 3.273h4.492z"/></g><g><path fill="#373837" d="M41.263 130.33v9.848h-4.01v-9.162c0-1.42-.481-1.801-1.268-1.801-.888 0-1.624.634-2.335 1.75v9.213h-4.01v-13.476h3.503l.278 1.599c1.142-1.345 2.437-2.031 4.111-2.031 2.336 0 3.731 1.497 3.731 4.06"/></g><g><path fill="#373837" d="M53.986 127.92l-1.472 2.284c-1.04-.686-2.157-1.066-3.198-1.066-1.218 0-1.75.406-1.75 1.015 0 .711.354 1.016 2.765 1.726 2.665.761 4.162 1.878 4.162 4.289 0 2.792-2.639 4.441-5.99 4.441-2.334 0-4.314-.811-5.633-2.005l1.98-2.208c.989.813 2.233 1.345 3.527 1.345 1.244 0 1.98-.457 1.98-1.243 0-.939-.406-1.218-2.843-1.903-2.665-.762-3.984-2.132-3.984-4.214 0-2.308 2.106-4.111 5.507-4.111 1.954 0 3.705.634 4.949 1.65"/></g><g><path fill="#373837" d="M59.876 134.62c.28 2.41 1.42 3.07 3.07 3.07 1.092 0 2.056-.38 3.224-1.192l1.649 2.233c-1.345 1.067-3.07 1.878-5.252 1.878-4.493 0-6.777-2.893-6.777-7.106 0-4.035 2.208-7.233 6.294-7.233 3.857 0 6.218 2.538 6.218 6.903 0 .432-.026 1.041-.076 1.447zm4.492-2.589c-.026-1.827-.584-3.095-2.183-3.095-1.345 0-2.13.862-2.309 3.273h4.492z"/></g><g><path fill="#373837" d="M82.233 130.33v9.848h-4.01v-9.162c0-1.42-.481-1.801-1.268-1.801-.888 0-1.624.634-2.335 1.75v9.213h-4.01v-13.476h3.503l.278 1.599c1.142-1.345 2.437-2.031 4.112-2.031 2.335 0 3.73 1.497 3.73 4.06"/></g><g><path fill="#373837" d="M87.46 140.176L83.12 126.7h4.365l2.385 10.43 2.488-10.43h4.085l-4.238 13.476z"/></g><g/><g clip-path="url(#yvxta)"><path fill="#373837" d="M102.236 121.873c0-1.293-.99-2.283-2.386-2.283-1.396 0-2.36.99-2.36 2.283 0 1.295.964 2.285 2.36 2.285s2.386-.99 2.386-2.285zm-4.367 18.29h4.011v-13.467h-4.01z"/></g><g clip-path="url(#yvxta)"><path fill="#373837" d="M109.595 137.431a1.9 1.9 0 0 0 .66-.127l.787 2.843c-.685.28-1.65.457-2.589.457-2.233 0-3.553-1.32-3.553-3.807v-15.455l4.01-.432v15.48c0 .763.254 1.041.685 1.041"/></g><g clip-path="url(#yvxta)"><path fill="#373837" d="M117.135 137.431a1.9 1.9 0 0 0 .66-.127l.787 2.843c-.685.28-1.65.457-2.589.457-2.233 0-3.553-1.32-3.553-3.807v-15.455l4.01-.432v15.48c0 .763.254 1.041.685 1.041"/></g><g clip-path="url(#yvxta)"><path fill="#373837" d="M123.176 134.62c.279 2.41 1.42 3.07 3.07 3.07 1.092 0 2.056-.38 3.224-1.192l1.649 2.233c-1.345 1.067-3.07 1.878-5.253 1.878-4.492 0-6.776-2.893-6.776-7.106 0-4.035 2.208-7.233 6.294-7.233 3.858 0 6.218 2.538 6.218 6.903 0 .432-.026 1.041-.077 1.447zm4.492-2.589c-.026-1.827-.584-3.095-2.183-3.095-1.345 0-2.132.862-2.309 3.273h4.492z"/></g><g clip-path="url(#yvxta)"><path fill="#323333" d="M28.997 151.791c0 2.568-1.849 3.615-4.318 3.615h-1.472v4.186H21.8V148.34h2.879c2.682 0 4.318 1.096 4.318 3.451m-1.505.02c0-1.736-1.096-2.359-2.83-2.359h-1.455v4.835h1.423c1.717 0 2.862-.525 2.862-2.475"/></g><g clip-path="url(#yvxta)"><path fill="#323333" d="M37.089 158.82l-.328.965c-.833-.115-1.373-.458-1.602-1.325-.605.916-1.521 1.325-2.585 1.325-1.7 0-2.714-1.063-2.714-2.6 0-1.832 1.374-2.83 3.729-2.83h1.406v-.67c0-1.276-.605-1.767-1.847-1.767-.655 0-1.44.164-2.323.474l-.344-1.014c1.03-.392 1.963-.588 2.911-.588 2.045 0 2.977 1.046 2.977 2.829v3.99c0 .802.262 1.047.72 1.21m-2.094-1.488v-2.044H33.77c-1.603 0-2.453.605-2.453 1.832 0 1.047.54 1.62 1.57 1.62.932 0 1.619-.475 2.11-1.408"/></g><g clip-path="url(#yvxta)"><path fill="#323333" d="M44.021 150.888l-.245 1.341a2.723 2.723 0 0 0-.753-.098c-1.095 0-1.717.769-2.11 2.42v5.038H39.54v-8.602h1.178l.13 1.798c.458-1.325 1.26-1.995 2.323-1.995.295 0 .605.033.85.098"/></g><g clip-path="url(#yvxta)"><path fill="#323333" d="M45.81 159.593v-12.07l1.382-.163v12.233zm6.667 0H50.82L47.28 154.9l3.278-3.909H52.1l-3.28 3.811z"/></g><g clip-path="url(#yvxta)"><path fill="#323333" d="M61.167 159.592H58.55V148.34h2.323c2.813 0 5.544.9 5.544 5.561 0 4.611-2.846 5.691-5.25 5.691zm-1.212-1.128h1.325c1.8 0 3.618-.785 3.618-4.563 0-3.876-1.899-4.416-3.732-4.416h-1.21z"/></g><g clip-path="url(#yvxta)"><path fill="#323333" d="M70.596 147.878c0-.54-.392-.948-.981-.948-.573 0-.965.408-.965.948s.392.95.965.95c.589 0 .981-.41.981-.95zm-1.651 11.71h1.383v-8.603h-1.383z"/></g><g clip-path="url(#yvxta)"><path fill="#323333" d="M78.657 151.771l-.605.916c-.753-.556-1.407-.801-2.225-.801-1.014 0-1.668.474-1.668 1.21s.49 1.063 1.913 1.44c1.816.473 2.83 1.16 2.83 2.665 0 1.75-1.586 2.584-3.32 2.584-1.456 0-2.47-.474-3.222-1.129l.769-.866c.67.555 1.455.883 2.42.883 1.145 0 1.914-.54 1.914-1.34 0-.95-.442-1.277-2.143-1.735-1.848-.49-2.583-1.259-2.583-2.486 0-1.34 1.291-2.322 3.04-2.322 1.179 0 2.062.36 2.88.981"/></g><g clip-path="url(#yvxta)"><path fill="#323333" d="M83.471 159.785c-1.422 0-2.273-.835-2.273-2.404v-5.333H79.71v-1.062h1.488v-1.98l1.374-.146v2.126h2.077l-.147 1.062h-1.93v5.267c0 .9.31 1.325 1.08 1.325.408 0 .768-.114 1.193-.377l.524.95a3.293 3.293 0 0 1-1.898.572"/></g><g clip-path="url(#yvxta)"><path fill="#323333" d="M91.431 150.888l-.245 1.341a2.723 2.723 0 0 0-.753-.098c-1.095 0-1.717.769-2.11 2.42v5.038H86.95v-8.602h1.177l.131 1.798c.458-1.325 1.26-1.995 2.323-1.995.294 0 .605.033.85.098"/></g><g clip-path="url(#yvxta)"><path fill="#323333" d="M94.866 147.878c0-.54-.392-.948-.98-.948-.574 0-.966.408-.966.948s.392.95.966.95c.588 0 .98-.41.98-.95zm-1.651 11.71h1.383v-8.603h-1.383z"/></g><g clip-path="url(#yvxta)"><path fill="#323333" d="M103.453 151.706l-.687.9c-.556-.459-1.112-.672-1.848-.672-1.406 0-2.306 1.097-2.306 3.402 0 2.29.9 3.271 2.306 3.271.736 0 1.26-.229 1.88-.703l.655.932a3.907 3.907 0 0 1-2.584.95c-2.29 0-3.729-1.653-3.729-4.433 0-2.748 1.423-4.563 3.729-4.563.998 0 1.799.261 2.584.916"/></g><g clip-path="url(#yvxta)"><path fill="#323333" d="M107.901 159.785c-1.422 0-2.273-.835-2.273-2.404v-5.333h-1.488v-1.062h1.488v-1.98l1.374-.146v2.126h2.077l-.147 1.062h-1.93v5.267c0 .9.31 1.325 1.08 1.325.408 0 .768-.114 1.193-.377l.524.95a3.29 3.29 0 0 1-1.898.572"/></g></g></g></svg>