<svg xmlns="http://www.w3.org/2000/svg" width="224" height="272" viewBox="0 0 112 136"><defs><clipPath id="as24a"><path d="M0 136h112V0H0z"/></clipPath></defs><g><g><g><path fill="#fcb813" d="M24.358 21.113c-1.721-1.033-3.99-2.356-5.094-2.73-1.283-.435-1.849-.49-2.332-.213-.806.462-1.162 1.718-.776 2.518.281.581.902.818 1.127.907 2.535.994 7.397 4.635 8.837 5.948 1.44 1.313 3.699 2.318 4.727.359 1.029-1.959-3.354-4.723-6.489-6.789"/></g><g><path fill="#fcb813" d="M47.248 4.296c.324 1.824.559 3.464.822 4.624.263 1.161.497 3.222.893 5.113.324 1.544.522 3.877 2.023 3.964.373.022.768-.085 1.169-.349 1.886-1.242.206-9.015-1.064-13.318-1.27-4.304-5.094-7.064-3.843-.034"/></g><g><path fill="#fcb813" d="M76.631 11.724c-1.964 3.59-4.011 7.39-1.389 7.273 3.277-.147 8.226-11.069 4.325-11.973-1.358-.315-1.772 2.574-2.936 4.7"/></g><g><path fill="#fcb813" d="M8.495 55.61c-1.998.392-2.183 3.636.613 3.375 2.796-.26 10.438-2.903 12.788-4.838 2.35-1.936.506-3.48-1.43-3.085-1.028.21-3.231 1.494-5.633 2.545-2.124.929-4.39 1.62-6.338 2.003"/></g><g><path fill="#fcb813" d="M96.676 66.323c-1.212-1.125-3.554.937-2.333 2.355 1.22 1.417 6.021 4.142 8.348 4.312 2.327.169 2.822-1.788 1.814-2.642-1.009-.854-5.308-1.688-7.829-4.025"/></g><g><path fill="#fcb813" d="M30.645 81.722c-2.257 2.583-3.798 3.683-3.633 4.751.166 1.067.759 3.071 4.434-.528 3.675-3.6 5.905-7.165 5.509-8.87-.277-1.188-2.033-1.723-3.173.165-1.237 2.05-3.137 4.482-3.137 4.482"/></g><g><path fill="#fcb813" d="M65.437 86.993c.251 1.858.825 4.162 1.1 5.476.241 1.153 2.355 2.2 2.441.995.086-1.205-.064-5.71-.77-8.104-.706-2.395-1.827-3.7-2.735-3.283-.908.419-.272 3.17-.036 4.916"/></g><g><path fill="#fcb813" d="M94.676 32.93c-2.908 1.561-5.86 3.613-6.402 4.333-.3.398-.393.997-.077 1.382.415.509 1.219.377 1.848.18 1.356-.425 13.148-5.029 10.594-7.577-.744-.738-3.335.272-5.963 1.682"/></g><g><path fill="#fcb813" d="M32.465 44.421c-.857 3.25-2.148 22.133 12.725 27.512 8.385 3.032 15.828 4.343 22.755 4.019 6.045-.287 12.611-1.179 15.478-5.62 1.674-2.596 2.48-6.307 3.26-9.896.333-1.54.649-2.994 1.028-4.334.156-.552.317-1.123.285-1.629-.036-.562-.271-.965-1.332-1.241l-2.918-.76c-.322-.084-.763-.2-1-.11-.248.091-.478.5-.617 1.094-.275 1.182-.268 2.419-.26 3.73.008 1.134.016 2.308-.172 3.482-.916 5.753-6.722 9.963-11.807 10.709-7.501 1.103-15.317-.552-21.441-4.536-3.428-2.23-5.842-4.832-7.174-7.737-1.776-3.873-1.65-8.225-1.37-12.353.379-5.569 1.383-11.71 5.953-15.034 4.263-3.102 10.771-2.794 17.411.823 4.29 2.337 7.026 4.993 8.364 8.12 1.693 3.957.954 8.813-1.839 12.085-3.39 3.971-10.896 4.25-14.434 1.686-1.193-.865-3.671-3.366-.922-7.904.525-.868 1.215-1.46 1.993-1.711 1.36-.436 2.97.2 3.915 1.555.212.304.395.674.56 1.132.176.491.315 1.033.449 1.557.467 1.827.829 2.944 1.915 3.05.996.095 1.855-1.352 2.176-1.977.93-1.814 2.264-5.258.761-7.956-.663-1.19-1.817-2.09-2.86-2.815a29.996 29.996 0 0 0-6.79-3.531c-2.427-.892-4.207-1.029-5.601-.436-2.03.863-3.11 3.287-3.746 5.036-2.743 7.533-2.192 14.873 1.474 19.632 2.843 3.691 7.78 5.956 12.867 5.897 8.578-.092 14.97-4.873 16.283-12.178.675-3.756.047-7.28-.617-11.013-.282-1.582-.573-3.218-.76-4.878-.419-3.747-5.632-14.526-23.473-14.886a25.908 25.908 0 0 0-.52-.005c-15.609 0-18.546 14.409-19.66 19.87-.132.648-.236 1.16-.34 1.551"/></g><g><path fill="#373837" d="M4.672 119H0v-15h4.106c3.898 0 6.286 1.016 6.286 3.83 0 1.906-1.32 2.901-2.66 3.226 1.613.325 3.268 1.147 3.268 3.571 0 3.42-2.682 4.373-6.328 4.373zm-1.236-9.004H4.71c1.421 0 2.173-.563 2.173-1.82 0-1.255-.794-1.666-2.444-1.666H3.436zm1.509 2.358H3.436v4.07h1.257c1.614 0 2.766-.346 2.766-1.991 0-1.516-1.027-2.079-2.514-2.079z"/></g><g><path fill="#373837" d="M15.592 113.987c.245 2.018 1.25 2.57 2.7 2.57.96 0 1.807-.318 2.834-.997l1.45 1.868c-1.183.893-2.7 1.572-4.619 1.572-3.949 0-5.957-2.421-5.957-5.947 0-3.377 1.941-6.053 5.533-6.053 3.392 0 5.467 2.124 5.467 5.777 0 .362-.022.871-.067 1.21zm3.95-2.166c-.023-1.528-.514-2.59-1.92-2.59-1.182 0-1.874.722-2.03 2.74h3.95z"/></g><g><path fill="#373837" d="M35 110.504V119h-3.45v-7.905c0-1.226-.414-1.554-1.091-1.554-.765 0-1.398.547-2.01 1.51V119H25v-11.627h3.014l.24 1.38c.982-1.162 2.095-1.753 3.536-1.753 2.01 0 3.21 1.292 3.21 3.504"/></g><g><path fill="#373837" d="M45.563 108.381l-1.266 1.912c-.895-.575-1.856-.893-2.751-.893-1.048 0-1.507.34-1.507.85 0 .595.306.85 2.38 1.444 2.292.637 3.581 1.571 3.581 3.59 0 2.335-2.27 3.716-5.153 3.716-2.009 0-3.712-.68-4.847-1.678l1.703-1.848c.851.68 1.922 1.126 3.035 1.126 1.07 0 1.703-.382 1.703-1.04 0-.786-.35-1.02-2.446-1.593-2.292-.637-3.427-1.784-3.427-3.527 0-1.931 1.812-3.44 4.738-3.44 1.681 0 3.188.531 4.257 1.381"/></g><g><path fill="#373837" d="M50.592 113.987c.246 2.018 1.25 2.57 2.7 2.57.96 0 1.807-.318 2.834-.997l1.45 1.868c-1.183.893-2.7 1.572-4.618 1.572-3.95 0-5.958-2.421-5.958-5.947 0-3.377 1.941-6.053 5.533-6.053 3.392 0 5.467 2.124 5.467 5.777 0 .362-.022.871-.067 1.21zm3.95-2.166c-.023-1.528-.513-2.59-1.92-2.59-1.182 0-1.873.722-2.03 2.74h3.95z"/></g><g><path fill="#373837" d="M70 110.504V119h-3.45v-7.905c0-1.226-.414-1.554-1.091-1.554-.765 0-1.398.547-2.009 1.51V119H60v-11.627h3.014l.24 1.38c.982-1.162 2.095-1.753 3.537-1.753 2.008 0 3.209 1.292 3.209 3.504"/></g><g><path fill="#373837" d="M74.583 119L71 108h3.604l1.97 8.514L78.626 108H82l-3.5 11z"/></g><g/><g clip-path="url(#as24a)"><path fill="#373837" d="M87 103.886c0-1.068-.834-1.886-2.01-1.886-1.177 0-1.99.818-1.99 1.886 0 1.07.813 1.887 1.99 1.887 1.176 0 2.01-.818 2.01-1.887zM83.32 119h3.38v-11.13h-3.38z"/></g><g clip-path="url(#as24a)"><path fill="#373837" d="M92.822 117.261c.165 0 .393-.043.537-.11l.641 2.454c-.558.241-1.343.395-2.108.395-1.817 0-2.892-1.14-2.892-3.287v-13.34l3.265-.373v13.363c0 .658.206.898.557.898"/></g><g clip-path="url(#as24a)"><path fill="#373837" d="M99.822 117.261c.165 0 .393-.043.537-.11l.641 2.454c-.558.241-1.343.395-2.108.395-1.817 0-2.892-1.14-2.892-3.287v-13.34l3.264-.373v13.363c0 .658.207.898.558.898"/></g><g clip-path="url(#as24a)"><path fill="#373837" d="M104.592 113.987c.245 2.018 1.25 2.57 2.7 2.57.96 0 1.807-.318 2.834-.997l1.45 1.868c-1.183.893-2.7 1.572-4.619 1.572-3.949 0-5.957-2.421-5.957-5.947 0-3.377 1.941-6.053 5.533-6.053 3.392 0 5.467 2.124 5.467 5.777 0 .362-.022.871-.067 1.21zm3.95-2.166c-.023-1.528-.514-2.59-1.92-2.59-1.182 0-1.874.722-2.03 2.74h3.95z"/></g><g clip-path="url(#as24a)"><path fill="#323333" d="M25 129.067c0 2.282-1.541 3.212-3.6 3.212h-1.227V136H19v-10h2.4c2.236 0 3.6.974 3.6 3.067m-1.245.014c0-1.54-.916-2.092-2.365-2.092h-1.217v4.287h1.19c1.435 0 2.392-.465 2.392-2.195"/></g><g clip-path="url(#as24a)"><path fill="#323333" d="M31 135.141l-.272.859c-.692-.102-1.14-.407-1.33-1.178-.502.814-1.262 1.178-2.145 1.178-1.412 0-2.253-.946-2.253-2.313 0-1.629 1.14-2.516 3.095-2.516h1.167v-.597c0-1.134-.502-1.571-1.533-1.571-.544 0-1.195.146-1.928.422l-.285-.902c.855-.349 1.629-.523 2.416-.523 1.697 0 2.47.93 2.47 2.516v3.549c0 .713.218.93.598 1.076m-1.738-1.323V132h-1.018c-1.33 0-2.036.538-2.036 1.629 0 .93.448 1.44 1.303 1.44.774 0 1.344-.422 1.751-1.251"/></g><g clip-path="url(#as24a)"><path fill="#323333" d="M37 128.078l-.22 1.067a2.71 2.71 0 0 0-.67-.078c-.978 0-1.534.611-1.884 1.925V135H33v-6.844h1.051l.117 1.431c.408-1.054 1.124-1.587 2.073-1.587.263 0 .54.026.759.078"/></g><g clip-path="url(#as24a)"><path fill="#323333" d="M39 135v-9.866l1.238-.134v10zm6 0h-1.489l-3.184-3.837 2.948-3.195h1.386l-2.949 3.115z"/></g><g clip-path="url(#as24a)"><path fill="#323333" d="M52.328 136H50v-10h2.067c2.503 0 4.933.8 4.933 4.942 0 4.098-2.533 5.058-4.672 5.058zm-1.076-1.003h1.178c1.601 0 3.217-.698 3.217-4.055 0-3.445-1.688-3.925-3.319-3.925h-1.076z"/></g><g clip-path="url(#as24a)"><path fill="#323333" d="M60 125.824c0-.47-.403-.824-1.008-.824-.589 0-.992.355-.992.824 0 .47.403.825.992.825.605 0 1.008-.356 1.008-.825zM58.303 136h1.411v-7.476h-1.411z"/></g><g clip-path="url(#as24a)"><path fill="#323333" d="M66.775 128.873l-.554.814c-.69-.495-1.29-.712-2.041-.712-.93 0-1.53.422-1.53 1.075 0 .656.45.946 1.755 1.281 1.665.422 2.595 1.032 2.595 2.37 0 1.557-1.454 2.299-3.045 2.299-1.335 0-2.265-.422-2.955-1.004l.705-.77a3.428 3.428 0 0 0 2.22.785c1.05 0 1.755-.48 1.755-1.193 0-.844-.404-1.134-1.965-1.542-1.695-.436-2.37-1.12-2.37-2.21 0-1.193 1.185-2.066 2.79-2.066 1.08 0 1.89.32 2.64.873"/></g><g clip-path="url(#as24a)"><path fill="#323333" d="M71.324 136c-1.258 0-2.009-.687-2.009-1.98v-4.393H68v-.876h1.315v-1.63L70.53 127v1.751h1.835l-.13.876h-1.705v4.338c0 .741.274 1.092.954 1.092.361 0 .678-.094 1.054-.31l.463.781c-.492.31-1.04.472-1.676.472"/></g><g clip-path="url(#as24a)"><path fill="#323333" d="M78 128.078l-.22 1.067a2.71 2.71 0 0 0-.67-.078c-.979 0-1.534.611-1.884 1.925V135H74v-6.844h1.05l.118 1.431c.408-1.054 1.124-1.587 2.073-1.587.262 0 .54.026.759.078"/></g><g clip-path="url(#as24a)"><path fill="#323333" d="M81 125.824c0-.47-.403-.824-1.008-.824-.589 0-.992.355-.992.824 0 .47.403.825.992.825.605 0 1.008-.356 1.008-.825zM79.303 136h1.411v-7.476h-1.411z"/></g><g clip-path="url(#as24a)"><path fill="#323333" d="M88 128.815l-.544.8c-.44-.408-.88-.597-1.464-.597-1.114 0-1.826.975-1.826 3.025 0 2.037.712 2.91 1.826 2.91.583 0 .998-.204 1.49-.626l.518.829c-.583.553-1.27.844-2.047.844-1.813 0-2.953-1.47-2.953-3.942 0-2.444 1.127-4.058 2.953-4.058.79 0 1.425.232 2.047.815"/></g><g clip-path="url(#as24a)"><path fill="#323333" d="M91.324 136c-1.258 0-2.009-.687-2.009-1.98v-4.393H88v-.876h1.315v-1.63L90.53 127v1.751h1.835l-.13.876h-1.705v4.338c0 .741.274 1.092.954 1.092.361 0 .68-.094 1.054-.31l.463.781c-.491.31-1.04.472-1.676.472"/></g></g></g></svg>